<svg xmlns="http://www.w3.org/2000/svg" width="32.982" height="32.982" viewBox="0 0 32.982 32.982">
  <path id="camera" d="M1437.3,705.914h-20.234a6.379,6.379,0,0,0-6.372,6.373v20.235a6.379,6.379,0,0,0,6.372,6.373H1437.3a6.381,6.381,0,0,0,6.375-6.373V712.287A6.381,6.381,0,0,0,1437.3,705.914Zm1.829,3.8.728,0V715.3l-5.57.02-.019-5.589Zm-16.652,9.3a5.793,5.793,0,1,1-1.1,3.384A5.8,5.8,0,0,1,1422.473,719.021Zm17.986,13.5a3.165,3.165,0,0,1-3.163,3.161h-20.234a3.163,3.163,0,0,1-3.16-3.161v-13.5h4.924a9.02,9.02,0,1,0,16.708,0h4.926Z" transform="translate(-1410.69 -705.914)" fill="#1e1e1e"/>
</svg>
