<svg id="Layer_1" data-name="Layer 1" xmlns="http://www.w3.org/2000/svg" viewBox="0 0 283.82 65.39">
  <defs>
    <style>
      .cls-1 {
        fill: none;
        stroke: #fff;
        stroke-miterlimit: 10;
        stroke-width: 4px;
      }

      .cls-2 {
        fill: #fff;
      }
    </style>
  </defs>
  <g id="logo_figure" data-name="logo figure">
    <path id="element_1" data-name="element 1" class="cls-1" d="M71.06,2.67A.36.36,0,0,0,70.82,2H2.36a.36.36,0,0,0-.23.64L36.35,32.43a.36.36,0,0,0,.48,0Z"/>
    <line id="element_2" data-name="element 2" class="cls-1" x1="36.59" y1="63.36" x2="1.39" y2="63.36"/>
    <path id="element_3" data-name="element 3" class="cls-1" d="M16.39,3.39c4.16-1.16,15.76.24,20.2,7.67"/>
    <line id="element_4" data-name="element 4" class="cls-1" x1="72.06" y1="32.68" x2="36.59" y2="32.63"/>
    <path id="element_5" data-name="element 5" class="cls-1" d="M36.59,2V63.36c10.78.09,18.5,0,23.71-.67C72,61.16,72.37,53.79,72,47.39c-.8-13.38-35.4-14.76-35.4-14.76S2.33,32.23,3,15.1c.46-12,16-13,33.59-13.07C52.27,2,68.11,2,71.24,2a.57.57,0,0,1,.56.57L72.06,63a.14.14,0,0,1-.24.11L36.59,32.63c0,9.35,5.14,30.2,19,30.48"/>
  </g>
  <g id="TYSHCHUK">
    <path id="T" class="cls-2" d="M114.82,25.93V22h17.63v4H126V43.47h-4.73V25.93Z"/>
    <path id="Y" class="cls-2" d="M132.6,22h5.31l5,8.5,5-8.5h5.27l-8,13.26v8.26H140.5V35.09Z"/>
    <path id="S" class="cls-2" d="M158.65,38.17a3.44,3.44,0,0,0,1,1.22,4.51,4.51,0,0,0,1.52.69,7.24,7.24,0,0,0,1.81.23,9.56,9.56,0,0,0,1.36-.11,4.69,4.69,0,0,0,1.35-.4,2.91,2.91,0,0,0,1.06-.83,2.08,2.08,0,0,0,.42-1.34,1.89,1.89,0,0,0-.56-1.42,4.61,4.61,0,0,0-1.46-.91,14.27,14.27,0,0,0-2.05-.63c-.76-.18-1.54-.38-2.32-.6a20.69,20.69,0,0,1-2.35-.74,8,8,0,0,1-2.05-1.13,5.07,5.07,0,0,1-2-4.25,5.54,5.54,0,0,1,.71-2.88A6.56,6.56,0,0,1,157,23a8.19,8.19,0,0,1,2.59-1.2,11.12,11.12,0,0,1,2.9-.39,13.81,13.81,0,0,1,3.24.37A8.42,8.42,0,0,1,168.45,23a6.3,6.3,0,0,1,1.91,2.16,6.61,6.61,0,0,1,.71,3.18h-4.58a3.83,3.83,0,0,0-.41-1.6,2.66,2.66,0,0,0-.92-1,3.9,3.9,0,0,0-1.31-.51,7.38,7.38,0,0,0-1.61-.16,5,5,0,0,0-1.15.13,3.08,3.08,0,0,0-1,.42,2.62,2.62,0,0,0-.77.75,2,2,0,0,0-.3,1.15,1.93,1.93,0,0,0,.24,1,2.16,2.16,0,0,0,.95.72,11.21,11.21,0,0,0,2,.67l3.27.84c.4.08,1,.23,1.68.44a8,8,0,0,1,2.12,1A6.3,6.3,0,0,1,171,34.11a5.25,5.25,0,0,1,.77,3,6.64,6.64,0,0,1-.57,2.75,6,6,0,0,1-1.7,2.18,8,8,0,0,1-2.81,1.43,12.9,12.9,0,0,1-3.87.52,13.59,13.59,0,0,1-3.45-.44,8.61,8.61,0,0,1-2.95-1.37,6.71,6.71,0,0,1-2-2.38,7.16,7.16,0,0,1-.72-3.44h4.58A4,4,0,0,0,158.65,38.17Z"/>
    <path id="H" class="cls-2" d="M179.33,22v8.26H188V22h4.74V43.47H188V34.19h-8.71v9.28H174.6V22Z"/>
    <path id="C" class="cls-2" d="M210.74,27.69a4.76,4.76,0,0,0-1.05-1.19,4.88,4.88,0,0,0-1.43-.8,4.94,4.94,0,0,0-1.68-.28,5.54,5.54,0,0,0-2.71.61,5.25,5.25,0,0,0-1.81,1.66,7.32,7.32,0,0,0-1,2.37,11.81,11.81,0,0,0-.31,2.74,11,11,0,0,0,.31,2.64,7.28,7.28,0,0,0,1,2.31,5.2,5.2,0,0,0,1.81,1.64,5.54,5.54,0,0,0,2.71.62,4.39,4.39,0,0,0,3.4-1.33,6.14,6.14,0,0,0,1.49-3.5h4.58a10.94,10.94,0,0,1-.93,3.65,9,9,0,0,1-2,2.78,8.5,8.5,0,0,1-2.9,1.74,10.39,10.39,0,0,1-3.65.61,11.06,11.06,0,0,1-4.44-.86,9.49,9.49,0,0,1-3.33-2.37,10.26,10.26,0,0,1-2.08-3.54A12.84,12.84,0,0,1,196,32.8a13.18,13.18,0,0,1,.73-4.47,10.67,10.67,0,0,1,2.08-3.61,9.46,9.46,0,0,1,3.33-2.41A11.6,11.6,0,0,1,210,22a9.12,9.12,0,0,1,2.83,1.49,8,8,0,0,1,2.06,2.43,8.52,8.52,0,0,1,1,3.31h-4.58A3.73,3.73,0,0,0,210.74,27.69Z"/>
    <path id="H-2" data-name="H" class="cls-2" d="M224,22v8.26h8.71V22h4.73V43.47h-4.73V34.19H224v9.28h-4.73V22Z"/>
    <path id="U" class="cls-2" d="M257.44,41.83a11.84,11.84,0,0,1-13.52,0q-2.4-2.12-2.4-6.52V22h4.74V35.33a9.74,9.74,0,0,0,.15,1.72,3.53,3.53,0,0,0,.63,1.5,3.49,3.49,0,0,0,1.34,1.05,5.49,5.49,0,0,0,2.31.41c1.69,0,2.85-.38,3.5-1.13a5.44,5.44,0,0,0,1-3.55V22h4.73V35.33C259.88,38.25,259.07,40.41,257.44,41.83Z"/>
    <path id="K" class="cls-2" d="M268.69,22v8.92L277.1,22H283l-8.41,8.5,9.22,13h-5.94L271.4,33.8l-2.71,2.74v6.93H264V22Z"/>
  </g>
</svg>
