<svg xmlns="http://www.w3.org/2000/svg" width="32.985" height="26.386" viewBox="0 0 32.985 26.386">
  <g id="twitter" transform="translate(0 0)">
    <path id="bird" d="M404.764,623.4a13.681,13.681,0,0,1-4.3,1.618,6.8,6.8,0,0,0-4.938-2.1,6.669,6.669,0,0,0-6.592,8.18,19.318,19.318,0,0,1-13.948-6.96,6.559,6.559,0,0,0-.917,3.35,6.633,6.633,0,0,0,3.012,5.543,6.831,6.831,0,0,1-3.065-.833v.083a6.7,6.7,0,0,0,5.429,6.533,6.871,6.871,0,0,1-1.784.234,6.941,6.941,0,0,1-1.273-.12,6.765,6.765,0,0,0,6.322,4.626A13.727,13.727,0,0,1,374.3,646.4a14.186,14.186,0,0,1-1.614-.092,19.393,19.393,0,0,0,10.374,2.992,18.962,18.962,0,0,0,19.253-18.951c0-.289,0-.577-.018-.862a13.638,13.638,0,0,0,3.376-3.449,13.679,13.679,0,0,1-3.888,1.048A6.7,6.7,0,0,0,404.764,623.4Z" transform="translate(-372.69 -622.914)" fill="#1e1e1e"/>
  </g>
</svg>
